<?xml version="1.0" standalone="no"?>
<!DOCTYPE svg PUBLIC "-//W3C//DTD SVG 20010904//EN"
 "http://www.w3.org/TR/2001/REC-SVG-20010904/DTD/svg10.dtd">
<svg version="1.0" xmlns="http://www.w3.org/2000/svg"
 width="512.000000pt" height="512.000000pt" viewBox="0 0 512.000000 512.000000"
 preserveAspectRatio="xMidYMid meet">

<g transform="translate(0.000000,512.000000) scale(0.100000,-0.100000)"
fill="#000000" stroke="none">
<path d="M2686 5105 c-138 -35 -281 -145 -344 -263 -94 -178 -88 -387 17 -549
l40 -62 -57 -11 c-119 -22 -292 -85 -434 -156 -81 -40 -155 -82 -165 -93 -18
-18 -22 -17 -225 63 -114 45 -209 84 -212 87 -3 3 7 36 23 75 140 334 -51 714
-405 804 -369 95 -733 -185 -737 -565 -1 -108 14 -176 60 -273 41 -86 143
-200 218 -243 36 -20 60 -44 85 -86 20 -32 54 -70 80 -88 25 -18 285 -132 579
-255 600 -250 605 -251 716 -210 33 12 80 24 105 27 25 3 117 37 209 79 91 41
168 74 171 74 9 0 45 -126 59 -204 16 -86 13 -281 -4 -372 -26 -136 -52 -201
-93 -231 -172 -127 -286 -275 -347 -451 -14 -39 -45 -171 -70 -294 -36 -175
-43 -228 -36 -251 9 -23 6 -35 -12 -63 -12 -19 -31 -37 -42 -39 -11 -3 -312
-62 -670 -131 -470 -91 -664 -133 -701 -150 -58 -27 -132 -101 -163 -161 -119
-234 55 -516 319 -518 38 0 158 18 290 44 201 40 228 48 252 72 47 46 33 122
-27 154 -31 18 -37 17 -273 -29 -203 -39 -248 -45 -280 -37 -47 13 -99 66
-113 114 -20 72 27 165 94 186 18 6 336 69 707 141 371 72 685 138 698 146 13
8 39 41 59 72 20 31 37 59 39 61 2 2 66 -32 143 -75 l139 -78 -26 -40 c-92
-148 -145 -218 -175 -231 -18 -8 -74 -24 -126 -35 -103 -22 -118 -30 -138 -77
-11 -28 -11 -38 1 -67 8 -19 26 -42 41 -52 26 -17 32 -17 126 -1 207 36 256
71 396 285 52 80 105 154 119 164 13 11 65 89 115 174 67 113 96 154 107 149
8 -3 108 -62 223 -131 114 -68 224 -131 244 -139 19 -9 35 -21 35 -28 -1 -6
-207 -173 -459 -369 -486 -379 -505 -396 -536 -502 -87 -292 213 -560 486
-434 51 24 1216 924 1302 1007 21 20 52 65 70 101 28 57 32 74 32 150 0 131
-26 176 -217 381 -103 110 -157 175 -161 195 -3 17 -84 127 -192 264 -103 129
-196 247 -207 263 l-19 27 72 248 c39 136 76 261 81 279 5 20 17 34 31 38 12
3 282 117 601 253 498 213 585 253 627 290 162 144 129 401 -65 499 -66 34
-156 41 -222 19 -27 -9 -247 -97 -489 -196 l-440 -180 -75 83 c-159 175 -273
285 -344 331 l-73 48 66 67 c75 75 124 159 146 252 64 271 -81 541 -341 636
-88 31 -222 39 -308 18z m268 -218 c69 -32 131 -94 165 -166 35 -76 37 -201 4
-274 -45 -97 -124 -164 -227 -192 -231 -63 -455 141 -416 379 36 219 272 345
474 253z m-1998 -111 c195 -97 272 -321 180 -522 -14 -30 -27 -54 -30 -54 -3
0 -52 18 -108 41 -184 72 -294 62 -394 -36 -28 -27 -56 -59 -62 -70 -10 -19
-12 -19 -47 15 -48 46 -94 143 -105 216 -23 166 63 335 209 408 73 37 115 46
205 41 66 -3 91 -9 152 -39z m331 -867 c252 -99 470 -185 484 -190 19 -8 37
-34 75 -116 27 -58 50 -109 52 -113 4 -10 -45 -30 -72 -30 -13 0 -257 97 -542
216 -560 233 -574 241 -574 310 0 19 5 44 10 54 13 24 57 49 87 50 12 0 228
-81 480 -181z m1571 110 c40 -10 114 -39 165 -65 81 -42 106 -62 209 -167
l118 -120 -53 -60 c-28 -34 -73 -83 -98 -111 l-46 -50 -73 58 c-40 32 -85 65
-101 73 -77 38 -164 -49 -133 -132 7 -16 502 -419 525 -427 7 -2 -16 -97 -60
-247 -39 -135 -72 -245 -74 -247 -2 -2 -607 146 -614 150 -1 1 10 44 24 96 21
78 26 125 30 265 6 196 -6 284 -63 455 -46 136 -74 185 -117 199 -40 14 -31
16 -228 -70 -86 -38 -161 -69 -166 -69 -7 0 -129 242 -151 300 -9 23 231 127
370 160 177 42 391 46 536 9z m1829 -179 c53 -32 61 -118 16 -161 -29 -27
-1138 -499 -1173 -499 -17 0 -41 5 -53 12 -32 17 -157 119 -157 128 0 4 37 49
81 99 l81 92 22 -19 c28 -26 60 -42 83 -42 10 0 243 92 518 205 275 112 511
204 525 204 14 1 39 -8 57 -19z m-1801 -1441 c197 -50 364 -96 370 -102 6 -7
86 -108 178 -225 140 -178 166 -215 156 -228 -16 -19 -279 -248 -290 -252 -10
-4 -400 231 -440 265 -18 15 -54 72 -85 134 -30 59 -65 115 -77 123 -32 22
-90 20 -121 -4 -54 -43 -42 -131 34 -262 l40 -68 -72 -122 c-40 -68 -73 -125
-75 -126 -4 -7 -366 201 -370 213 -8 19 66 355 91 418 14 34 44 89 66 124 51
78 182 203 213 203 13 0 184 -41 382 -91z m1039 -947 c97 -107 110 -144 80
-220 -16 -39 -76 -88 -634 -524 -369 -290 -632 -488 -656 -497 -72 -26 -153 8
-190 80 -23 43 -19 110 8 150 12 19 245 208 517 421 272 213 500 395 507 404
27 38 16 88 -33 149 -54 66 -65 44 91 180 l100 87 63 -69 c35 -37 101 -110
147 -161z"/>
<path d="M1495 936 c-36 -36 -42 -73 -19 -115 52 -97 184 -61 184 50 0 76
-111 119 -165 65z"/>
</g>
</svg>
